<?xml version="1.0" encoding="UTF-8" standalone="no"?>
<!DOCTYPE svg PUBLIC "-//W3C//DTD SVG 1.1//EN" "http://www.w3.org/Graphics/SVG/1.1/DTD/svg11.dtd">
<svg version="1.1" xmlns="http://www.w3.org/2000/svg" xmlns:xlink="http://www.w3.org/1999/xlink" preserveAspectRatio="xMidYMid meet" viewBox="0 0 640 640" width="640" height="640"><defs><path d="M338.85 144L348.13 145.02L357.29 146.43L366.33 148.22L375.24 150.4L384.03 152.94L392.67 155.85L401.16 159.11L409.49 162.71L417.66 166.65L425.66 170.92L433.48 175.51L441.12 180.41L448.35 185.48L445.3 193.64L424.95 241.69L465.65 267.22L453.96 322.78L501.79 363.24L549.44 374.84L549.81 381.35L550 391.59L549.81 401.82L549.24 411.95L548.29 421.96L546.99 431.86L545.32 441.62L543.31 451.25L540.96 460.74L538.27 470.07L535.25 479.24L531.91 488.24L528.27 497.07L524.31 505.71L520.06 514.15L515.52 522.4L510.7 530.44L505.6 538.26L500.23 545.85L494.61 553.21L488.73 560.34L482.6 567.21L476.24 573.82L469.65 580.17L462.83 586.25L455.8 592.04L448.56 597.55L441.12 602.76L433.48 607.66L425.66 612.26L417.66 616.53L409.49 620.47L401.16 624.07L392.67 627.33L384.03 630.23L375.24 632.78L366.33 634.95L357.29 636.75L348.13 638.16L338.85 639.18L329.47 639.79L320 640L310.53 639.79L301.15 639.18L291.87 638.16L282.71 636.75L273.67 634.95L264.76 632.78L255.97 630.23L247.33 627.33L238.84 624.07L230.51 620.47L222.34 616.53L214.34 612.26L206.52 607.66L198.88 602.76L191.44 597.55L184.2 592.04L177.17 586.25L170.35 580.17L163.76 573.82L157.4 567.21L151.27 560.34L145.39 553.21L139.77 545.85L134.4 538.26L129.3 530.44L124.48 522.4L119.94 514.15L115.69 505.71L111.73 497.07L108.09 488.24L104.75 479.24L101.73 470.07L99.04 460.74L96.69 451.25L94.68 441.62L93.01 431.86L91.71 421.96L90.76 411.95L90.19 401.82L90 391.59L90.19 381.35L90.76 371.23L91.71 361.21L93.01 351.32L94.68 341.55L96.69 331.92L99.04 322.44L101.73 313.1L104.75 303.93L108.09 294.93L111.73 286.11L115.69 277.47L119.94 269.02L124.48 260.77L129.3 252.74L134.4 244.92L139.77 237.32L145.39 229.96L151.27 222.84L157.4 215.97L163.76 209.35L170.35 203L177.17 196.93L184.2 191.13L191.44 185.62L198.88 180.41L206.52 175.51L214.34 170.92L222.34 166.65L230.51 162.71L238.84 159.11L247.33 155.85L255.97 152.94L264.76 150.4L273.67 148.22L282.71 146.43L291.87 145.02L301.15 144L310.53 143.38L320 143.17L329.47 143.38L338.85 144Z" id="a2nFZa4qqH"></path><path d="M291.84 79.71C307.91 105.38 312.94 130.55 303.07 135.89C293.19 141.23 272.12 124.72 256.05 99.05C239.98 73.38 234.95 48.21 244.82 42.87C254.7 37.54 275.77 54.04 291.84 79.71Z" id="ajxnSS50I"></path><path d="M320 122.87L445.41 0L457.16 10.35L331.75 133.21L320 122.87Z" id="dEYmRSoN"></path><path d="M424.95 241.72L446.63 268.16L446.63 322.53L489.34 363.67L529.9 375.34L547.39 375.34L508.32 348.98L470.36 316.65L477.43 272.57L448.21 232.9L447.19 180.35L424.95 241.72Z" id="a1YlT3TtWg"></path></defs><g><g><g><use xlink:href="#a2nFZa4qqH" opacity="1" fill="#0db301" fill-opacity="1"></use><g><use xlink:href="#a2nFZa4qqH" opacity="1" fill-opacity="0" stroke="#000000" stroke-width="1" stroke-opacity="1"></use></g></g><g><use xlink:href="#ajxnSS50I" opacity="1" fill="#83f800" fill-opacity="1"></use></g><g><use xlink:href="#dEYmRSoN" opacity="1" fill="#c64f07" fill-opacity="1"></use></g><g><use xlink:href="#a1YlT3TtWg" opacity="1" fill="#eae61e" fill-opacity="1"></use><g><use xlink:href="#a1YlT3TtWg" opacity="1" fill-opacity="0" stroke="#000000" stroke-width="1" stroke-opacity="0.84"></use></g></g></g></g></svg>
